<?xml version="1.0" encoding="UTF-8" standalone="no"?>
<!DOCTYPE svg PUBLIC "-//W3C//DTD SVG 1.1//EN" "http://www.w3.org/Graphics/SVG/1.1/DTD/svg11.dtd">
<svg width="100%" height="100%" viewBox="0 0 1024 1024" version="1.1" xmlns="http://www.w3.org/2000/svg" xmlns:xlink="http://www.w3.org/1999/xlink" xml:space="preserve" xmlns:serif="http://www.serif.com/" style="fill-rule:evenodd;clip-rule:evenodd;stroke-linejoin:round;stroke-miterlimit:1.41421;">
    <g id="Layer1">
        <path id="Black-border" serif:id="Black border" d="M971,676L971,272L51,272L51,676L100,676L234,798L368,676L971,676Z" style="fill:none;"/>
        <clipPath id="_clip1">
            <path id="Black-border1" serif:id="Black border" d="M971,676L971,272L51,272L51,676L100,676L234,798L368,676L971,676Z"/>
        </clipPath>
        <g clip-path="url(#_clip1)">
            <g id="Orange-inner" serif:id="Orange inner">
                <path d="M971,676L971,272L51,272L51,676L99,676L234,799L369,676L971,676Z" style="fill:#f6f6f6;"/>
                <path d="M971,676L369,676L234,799L99,676L51,676L51,272L971,272L971,676ZM61,282L61,666L102.872,666L234,785.472L365.128,666L961,666L961,282L61,282Z" style="fill:#ffc600;"/>
            </g>
        </g>
        <path id="Black-border2" serif:id="Black border" d="M987,692L374.193,692L234,819.638L93.807,692L35,692L35,256L987,256L987,692ZM51,272L51,676L100,676L234,798L368,676L971,676L971,272L51,272Z"/>
        <g transform="matrix(35.1564,0,0,35.4598,-13747.2,-13744.9)">
            <path d="M401.551,396.847C401.551,396.751 401.491,396.691 401.395,396.691L399.776,396.691C399.68,396.691 399.62,396.751 399.62,396.847L399.62,400.231C399.62,401.092 399.632,401.644 399.752,402.387C399.776,402.555 399.644,402.627 399.56,402.435C399.404,402.147 399.272,401.872 399.128,401.56L397.411,398.082C397.219,397.686 396.991,397.231 396.799,396.811C396.763,396.727 396.715,396.691 396.619,396.691L394.484,396.691C394.388,396.691 394.328,396.751 394.328,396.847L394.328,405.041C394.328,405.137 394.388,405.197 394.484,405.197L396.115,405.197C396.211,405.197 396.271,405.137 396.271,405.041L396.271,401.68C396.271,400.821 396.247,400.258 396.139,399.503C396.127,399.347 396.247,399.275 396.343,399.455C396.487,399.766 396.619,400.042 396.775,400.354L398.48,403.807C398.672,404.203 398.9,404.658 399.08,405.078C399.116,405.162 399.164,405.198 399.26,405.198L401.395,405.198C401.491,405.198 401.551,405.138 401.551,405.042L401.551,396.847Z" style="fill-rule:nonzero;"/>
            <path d="M403.268,396.691C403.172,396.691 403.112,396.751 403.112,396.847L403.112,405.042C403.112,405.138 403.172,405.198 403.268,405.198L404.899,405.198C404.995,405.198 405.055,405.138 405.055,405.042L405.055,402.486L406.087,402.486C408.272,402.486 409.543,401.395 409.543,399.522C409.543,397.746 408.428,396.691 406.508,396.691L403.268,396.691ZM405.055,398.394L406.508,398.394C407.192,398.394 407.588,398.814 407.588,399.522C407.588,400.327 407.036,400.795 406.087,400.795L405.055,400.795L405.055,398.394Z" style="fill-rule:nonzero;"/>
            <path d="M416.887,404.85C416.995,404.814 417.019,404.754 416.983,404.658L416.503,403.351C416.479,403.255 416.407,403.219 416.311,403.255L415.747,403.423C415.315,403.567 414.955,403.603 414.511,403.603C413.311,403.603 412.579,402.631 412.579,400.938C412.579,399.27 413.311,398.298 414.511,398.298C415.063,398.298 415.411,398.346 415.759,398.454L416.323,398.634C416.419,398.67 416.479,398.634 416.515,398.538L416.947,397.183C416.983,397.087 416.947,397.027 416.851,396.991L416.299,396.811C415.699,396.619 415.195,396.559 414.511,396.559C412.099,396.559 410.624,398.25 410.624,400.938C410.624,403.639 412.099,405.33 414.511,405.33C415.171,405.33 415.663,405.258 416.311,405.042L416.887,404.85Z" style="fill-rule:nonzero;"/>
        </g>
    </g>
</svg>
